<svg width="32" height="21" viewBox="0 0 32 21" fill="none" xmlns="http://www.w3.org/2000/svg">
<rect x="0.25" y="0.25" width="31.5" height="20.5" rx="3.75" fill="white"/>
<rect x="0.25" y="0.25" width="31.5" height="20.5" rx="3.75" stroke="#E0E0E3" stroke-width="0.5"/>
<path d="M8.00011 18.8542H24.0001V2.85423H8.00011V18.8542Z" fill="#006FCF"/>
<path d="M13.7963 16.3226L20.1228 16.3361L21.1164 15.2276L22.1171 16.3319H24.0002V14.7146L22.8208 13.4427L24.0002 12.1824V10.5987L13.7963 10.5896V16.3226Z" fill="white"/>
<path fill-rule="evenodd" clip-rule="evenodd" d="M14.4779 15.6938V11.2202H18.271V12.2508H15.706V12.9503H18.2099V13.9638H15.706V14.6509H18.271V15.6938L14.4779 15.6938Z" fill="#006FCF"/>
<path d="M22.4454 11.2203L21.1592 12.6382L19.8767 11.2203H18.2521L20.351 13.4545L18.2521 15.6938H19.8325L21.1245 14.2617L22.4298 15.6938H24.0002V15.6303L21.946 13.4545L24.0002 11.2555V11.2203H22.4454Z" fill="#006FCF"/>
<path d="M21.6814 5.50068L21.156 6.97043L20.6324 5.50068H17.5958V7.46235L16.7318 5.50068H14.2722L11.746 11.2338H24.0002V5.50068H21.6814Z" fill="white"/>
<path fill-rule="evenodd" clip-rule="evenodd" d="M14.9085 8.69518L15.5037 7.27227L16.0986 8.69518H14.9085ZM14.7379 6.12356L12.7529 10.5934H14.1144L14.4888 9.69835H16.518L16.8922 10.5934H18.2875L16.3107 6.12356H14.7379Z" fill="#006FCF"/>
<path d="M18.2689 10.5927L19.4725 10.5927V7.5224L20.6144 10.5927H21.6963L22.815 7.53283V10.6031L24.0002 10.5927V6.12292H22.1583L21.1673 8.87744L20.1826 6.12951L18.2689 6.1229V10.5927Z" fill="#006FCF"/>
</svg>
